<?xml version="1.0" standalone="no"?>
<!DOCTYPE svg PUBLIC "-//W3C//DTD SVG 20010904//EN"
 "http://www.w3.org/TR/2001/REC-SVG-20010904/DTD/svg10.dtd">
<svg version="1.0" xmlns="http://www.w3.org/2000/svg"
 width="900.000000pt" height="277.000000pt" viewBox="0 0 900.000000 277.000000"
 preserveAspectRatio="xMidYMid meet">

<g transform="translate(0.000000,277.000000) scale(0.100000,-0.100000)"
fill="#000000" stroke="none">
<path d="M4220 1970 l0 -550 70 0 70 0 0 550 0 550 -70 0 -70 0 0 -550z"/>
<path d="M7750 2303 l0 -217 -27 26 c-99 90 -227 119 -368 83 -150 -39 -250
-155 -277 -320 -30 -178 55 -351 209 -427 58 -28 79 -33 162 -36 116 -5 190
18 256 79 23 22 45 39 49 39 3 0 6 -25 6 -55 l0 -55 65 0 65 0 0 550 0 550
-70 0 -70 0 0 -217z m-166 -233 c57 -22 109 -70 143 -132 14 -25 18 -55 18
-128 0 -112 -17 -154 -89 -217 -52 -46 -101 -63 -177 -63 -137 2 -235 86 -261
227 -41 220 158 390 366 313z"/>
<path d="M574 2456 c-133 -31 -269 -125 -337 -233 -93 -148 -103 -373 -23
-531 80 -158 229 -259 415 -282 91 -12 204 0 285 31 68 25 180 99 184 121 2 8
-18 32 -43 52 l-45 38 -38 -30 c-128 -101 -300 -118 -452 -45 -195 94 -274
342 -174 542 42 84 102 142 192 184 62 30 75 32 172 32 122 -1 189 -21 259
-82 l43 -36 46 47 47 47 -40 36 c-46 40 -96 67 -175 95 -73 25 -234 33 -316
14z"/>
<path d="M2880 2290 l0 -90 -65 0 -65 0 0 -55 0 -55 65 0 65 0 0 -242 c0 -134
5 -259 10 -279 28 -99 114 -159 229 -159 76 0 131 13 160 38 l20 17 -20 46
-21 47 -31 -16 c-18 -9 -56 -16 -85 -16 -46 0 -56 4 -85 32 l-32 32 -3 250 -3
250 116 0 115 0 0 55 0 55 -115 0 -115 0 0 90 0 90 -70 0 -70 0 0 -90z"/>
<path d="M1389 2187 c-198 -69 -302 -259 -258 -469 26 -121 103 -218 217 -271
163 -76 389 -33 496 94 16 19 43 63 60 99 29 60 31 73 31 171 0 104 -1 108
-40 185 -70 137 -180 204 -350 211 -75 3 -101 0 -156 -20z m245 -118 c215 -80
222 -417 11 -515 -99 -47 -236 -23 -307 52 -78 83 -97 230 -45 336 63 128 201
180 341 127z"/>
<path d="M2278 2191 c-120 -39 -198 -106 -247 -210 -23 -50 -26 -68 -26 -171
0 -103 3 -121 26 -171 73 -156 215 -235 404 -227 79 3 101 8 158 36 57 28 137
99 137 122 0 4 -23 21 -51 38 l-50 32 -25 -29 c-88 -105 -285 -107 -388 -5
-74 75 -100 225 -55 324 61 136 223 197 357 135 30 -14 67 -39 83 -56 l29 -31
50 32 c27 18 50 36 50 42 0 24 -100 107 -156 128 -82 32 -218 37 -296 11z"/>
<path d="M3597 2200 c-107 -27 -204 -107 -254 -208 -26 -53 -28 -65 -28 -182
0 -117 2 -129 28 -182 37 -75 128 -159 204 -189 72 -27 212 -37 292 -19 66 14
139 52 174 89 l25 26 -38 44 -38 44 -35 -30 c-53 -46 -124 -66 -216 -61 -127
7 -225 75 -255 178 l-13 45 321 5 321 5 3 48 c2 26 -4 75 -13 109 -30 119 -96
201 -202 251 -53 24 -80 30 -151 33 -48 2 -104 -1 -125 -6z m221 -134 c26 -13
60 -38 76 -55 28 -29 69 -128 60 -143 -7 -10 -501 -10 -507 0 -9 16 24 99 54
136 70 84 217 113 317 62z"/>
<path d="M4758 2191 c-76 -25 -119 -53 -172 -112 -112 -125 -128 -344 -34
-491 40 -63 89 -105 168 -142 62 -30 71 -31 190 -31 115 0 130 2 182 27 59 27
128 75 128 87 0 4 -16 26 -36 50 -36 42 -37 42 -58 23 -71 -65 -214 -91 -316
-57 -64 21 -136 84 -161 140 -37 80 -59 75 302 75 l321 0 -4 89 c-3 77 -9 99
-38 155 -66 130 -171 196 -325 202 -69 3 -103 0 -147 -15z m219 -112 c81 -30
144 -103 158 -181 l7 -38 -256 0 -256 0 0 23 c1 61 73 155 145 188 45 21 156
25 202 8z"/>
<path d="M5527 2194 c-69 -17 -167 -61 -174 -79 -2 -8 7 -34 22 -59 l27 -46
41 24 c109 63 269 74 345 23 44 -28 69 -74 78 -140 l6 -44 -173 -5 c-121 -4
-187 -10 -217 -21 -99 -35 -149 -95 -159 -192 -5 -45 -1 -63 21 -108 44 -91
133 -137 265 -137 100 0 172 22 222 67 l39 35 0 -46 0 -46 71 0 71 0 -4 283
c-5 301 -9 328 -59 396 -70 95 -253 136 -422 95z m341 -478 c4 -62 -11 -97
-59 -140 -96 -87 -275 -82 -335 9 -12 18 -15 38 -11 71 10 92 63 114 262 111
l140 -2 3 -49z"/>
<path d="M6517 2200 c-54 -14 -110 -45 -145 -80 -17 -16 -33 -30 -36 -30 -3 0
-6 25 -6 55 l0 55 -65 0 -65 0 0 -390 0 -390 69 0 69 0 4 248 c3 232 4 250 25
288 47 87 122 129 233 128 84 0 141 -30 178 -94 l27 -45 3 -262 3 -263 70 0
69 0 0 258 c0 271 -7 328 -48 394 -55 89 -136 130 -262 134 -47 2 -102 -1
-123 -6z"/>
<path d="M8317 2200 c-217 -55 -343 -280 -283 -505 46 -175 199 -285 395 -285
181 0 320 92 384 254 30 75 28 220 -3 301 -32 84 -132 183 -215 215 -67 26
-212 36 -278 20z m199 -125 c67 -20 117 -64 151 -133 23 -47 28 -70 27 -132 0
-163 -92 -267 -245 -278 -84 -6 -143 14 -201 66 -56 51 -80 104 -86 188 -6 98
16 163 77 224 74 74 171 97 277 65z"/>
<path d="M4100 605 c-20 -25 -8 -50 25 -50 24 0 31 5 33 24 6 37 -34 55 -58
26z"/>
<path d="M3190 390 l0 -220 25 0 c23 0 25 4 25 43 0 34 6 49 28 70 15 15 32
27 38 27 5 0 34 -31 64 -69 48 -61 59 -70 89 -70 25 -1 31 2 24 12 -5 6 -38
47 -73 90 l-63 79 64 64 63 64 -31 0 c-24 0 -48 -16 -114 -76 l-84 -75 -3 140
-3 141 -24 0 -25 0 0 -220z"/>
<path d="M4240 411 l0 -200 26 -20 c17 -13 41 -21 65 -21 32 0 39 3 39 20 0
15 -7 20 -24 20 -52 0 -56 16 -56 216 l0 184 -25 0 -25 0 0 -199z"/>
<path d="M5790 415 c0 -195 0 -196 25 -220 32 -33 105 -36 105 -5 0 14 -7 20
-23 20 -52 0 -57 21 -57 218 l0 182 -25 0 -25 0 0 -195z"/>
<path d="M1756 580 c-16 -5 -40 -19 -54 -32 -44 -41 -52 -76 -52 -233 l0 -145
25 0 c22 0 24 4 27 58 l3 57 120 0 120 0 3 -58 c3 -53 5 -57 27 -57 l25 0 0
148 c0 133 -2 151 -23 187 -38 69 -133 101 -221 75z m149 -70 c31 -29 48 -82
43 -135 l-3 -40 -122 -3 -123 -3 0 54 c0 73 16 115 54 138 42 27 117 21 151
-11z"/>
<path d="M3520 395 c0 -91 4 -164 11 -178 16 -34 48 -49 100 -45 37 2 45 7 47
25 3 20 -1 22 -39 20 -58 -3 -70 20 -67 133 l3 85 48 3 c38 3 47 7 47 22 0 15
-9 19 -47 22 -46 3 -48 4 -51 36 -3 26 -7 32 -28 32 l-24 0 0 -155z"/>
<path d="M5210 395 c0 -91 4 -164 11 -178 16 -34 48 -49 100 -45 37 3 44 7 47
26 3 22 1 23 -32 16 -59 -11 -66 3 -66 122 l0 104 45 0 c38 0 45 3 45 20 0 17
-7 20 -45 20 -45 0 -45 0 -45 35 0 32 -2 35 -30 35 l-30 0 0 -155z"/>
<path d="M2313 480 c-51 -12 -83 -38 -104 -83 -24 -54 -24 -91 1 -142 29 -60
84 -89 161 -83 48 3 65 10 87 31 26 26 26 27 7 41 -18 13 -22 12 -43 -7 -17
-16 -36 -22 -69 -22 -38 0 -49 5 -74 33 -23 26 -29 41 -29 80 1 95 86 142 169
91 30 -18 36 -19 48 -6 13 13 12 17 -8 36 -21 19 -80 42 -104 40 -5 -1 -25 -4
-42 -9z"/>
<path d="M2621 480 c-140 -33 -165 -233 -37 -294 47 -22 123 -21 164 4 54 33
74 75 70 147 -3 53 -8 67 -33 94 -44 46 -103 64 -164 49z m115 -74 c36 -36 44
-78 24 -130 -22 -59 -107 -80 -166 -41 -58 37 -52 148 10 186 49 30 92 25 132
-15z"/>
<path d="M2971 480 c-78 -19 -124 -83 -118 -166 6 -91 67 -144 165 -144 73 0
153 59 102 75 -14 5 -28 1 -42 -12 -26 -23 -95 -24 -130 -1 -37 25 -54 80 -39
130 21 69 109 101 164 58 30 -23 41 -25 56 -7 8 11 5 19 -12 34 -18 18 -90 45
-107 42 -3 -1 -20 -5 -39 -9z"/>
<path d="M3795 475 c-88 -31 -126 -123 -89 -213 25 -60 60 -84 128 -90 44 -3
63 0 91 17 44 25 43 25 41 4 -1 -13 7 -19 27 -21 l27 -3 0 155 0 156 -30 0
c-23 0 -30 -4 -30 -20 0 -21 0 -21 -27 -1 -38 27 -90 34 -138 16z m114 -49
c56 -29 70 -122 25 -175 -66 -78 -187 -27 -186 78 1 87 83 137 161 97z"/>
<path d="M4621 480 c-69 -17 -121 -81 -121 -150 0 -52 38 -120 80 -142 50 -26
128 -24 170 4 19 13 35 28 37 35 7 19 -36 27 -55 10 -26 -23 -67 -30 -106 -17
-59 19 -89 91 -62 153 26 62 108 87 159 47 30 -24 41 -25 56 -6 9 11 5 19 -19
40 -18 14 -39 26 -48 26 -9 0 -26 2 -37 4 -11 3 -35 1 -54 -4z"/>
<path d="M4919 478 c-20 -5 -51 -25 -70 -44 -29 -30 -33 -42 -37 -97 -4 -72
16 -114 70 -147 45 -27 126 -27 161 0 14 11 28 20 31 20 3 0 6 -9 6 -20 0 -15
7 -20 25 -20 l25 0 0 155 0 155 -25 0 c-18 0 -25 -5 -25 -20 0 -19 -1 -19 -32
-1 -44 25 -85 31 -129 19z m122 -66 c65 -58 43 -168 -39 -192 -79 -24 -150 38
-139 122 12 90 111 129 178 70z"/>
<path d="M5485 475 c-88 -31 -126 -123 -89 -213 25 -60 60 -84 128 -90 44 -3
63 0 91 17 44 26 45 26 45 1 0 -15 7 -20 25 -20 l25 0 0 155 0 155 -30 0 c-23
0 -30 -4 -30 -20 0 -21 0 -21 -27 -1 -38 27 -90 34 -138 16z m114 -49 c58 -31
70 -125 22 -178 -43 -48 -109 -48 -152 0 -23 26 -29 41 -29 80 1 90 80 139
159 98z"/>
<path d="M6026 475 c-22 -7 -53 -27 -70 -44 -26 -26 -31 -39 -34 -93 -2 -50 1
-70 17 -96 34 -54 76 -74 147 -70 106 6 163 72 151 175 -11 101 -115 164 -211
128z m98 -45 c60 -22 82 -114 42 -175 -38 -59 -139 -53 -177 9 -31 50 -25 102
15 142 36 36 71 43 120 24z"/>
<path d="M6385 481 c-77 -19 -115 -67 -115 -146 0 -93 58 -149 157 -149 39 0
60 6 83 22 l30 23 0 -36 c0 -27 -8 -44 -29 -66 -25 -25 -37 -29 -81 -29 -29 0
-68 7 -87 17 -30 14 -36 14 -44 2 -14 -22 -11 -27 24 -46 46 -25 172 -25 210
1 51 35 57 60 57 241 l0 165 -25 0 c-19 0 -25 -5 -25 -22 0 -19 -1 -20 -17 -6
-16 14 -88 40 -103 37 -3 -1 -18 -4 -35 -8z m98 -52 c37 -19 57 -52 57 -94 0
-64 -45 -105 -115 -105 -52 0 -105 53 -105 105 0 52 53 105 105 105 20 0 46
-5 58 -11z"/>
<path d="M4100 325 l0 -155 25 0 25 0 0 155 0 155 -25 0 -25 0 0 -155z"/>
</g>
</svg>
